<svg xmlns="http://www.w3.org/2000/svg" version="1.1" xmlns:xlink="http://www.w3.org/1999/xlink" xmlns:svgjs="http://svgjs.com/svgjs" width="1440" height="628" preserveAspectRatio="none" viewBox="0 0 1440 628"><g mask="url(&quot;#SvgjsMask1068&quot;)" fill="none"><rect width="1440" height="628" x="0" y="0" fill="#0e2a47"></rect><path d="M1177.76 133.76 a2.49 2.49 0 1 0 4.98 0 a2.49 2.49 0 1 0 -4.98 0z" stroke="#d3b714"></path><path d="M1419.27 512.69L1429.25 512.69L1429.25 522.67L1419.27 522.67z" stroke="#d3b714"></path><path d="M999.05 58.66L1047.21 58.66L1047.21 106.82L999.05 106.82z" fill="#d3b714"></path><path d="M1218.21 256.92 a55.72 55.72 0 1 0 111.44 0 a55.72 55.72 0 1 0 -111.44 0z" fill="#d3b714"></path><path d="M538.88 627L585.84 627L585.84 655.39L538.88 655.39z" stroke="#e73635"></path><path d="M1208.35 339.27L1262 339.27L1262 383.66L1208.35 383.66z" fill="#e73635"></path><path d="M408.21 83.35L450.05 83.35L450.05 140.53L408.21 140.53z" stroke="#037b0b"></path><path d="M1444.68 72.72a62.6 62.6 0 1 0-85-91.92z" stroke="#e73635"></path><path d="M1288 562.52a24.53 24.53 0 1 0 46.71 15z" stroke="#e73635"></path><path d="M1290.89 384.62L1314.94 384.62L1314.94 426.12L1290.89 426.12z" stroke="#e73635"></path><path d="M756.15 426.29L774.14 426.29L774.14 444.28L756.15 444.28z" fill="#e73635"></path><path d="M1102.31 559.07 a27.07 27.07 0 1 0 54.14 0 a27.07 27.07 0 1 0 -54.14 0z" fill="#d3b714"></path><path d="M1143.92 185.39L1178.23 185.39L1178.23 218.57L1143.92 218.57z" fill="#d3b714"></path><path d="M1426.79 301.78L1431.8 301.78L1431.8 328.24L1426.79 328.24z" fill="#037b0b"></path><path d="M648.39 23.47 a49.14 49.14 0 1 0 98.28 0 a49.14 49.14 0 1 0 -98.28 0z" stroke="#e73635"></path><path d="M1049.58 62.46 a30.58 30.58 0 1 0 61.16 0 a30.58 30.58 0 1 0 -61.16 0z" stroke="#037b0b"></path><path d="M859.79 131.37 a9.52 9.52 0 1 0 19.04 0 a9.52 9.52 0 1 0 -19.04 0z" fill="#e73635"></path><path d="M1008.98 482.53L1046 482.53L1046 519.55L1008.98 519.55z" fill="#d3b714"></path><path d="M453.08 383.53 a60.32 60.32 0 1 0 120.64 0 a60.32 60.32 0 1 0 -120.64 0z" stroke="#e73635"></path><path d="M9.42 127.55L57.72 127.55L57.72 188.24L9.42 188.24z" stroke="#037b0b"></path><path d="M547.5 590.77L556.04 590.77L556.04 599.31L547.5 599.31z" stroke="#e73635"></path><path d="M923.23 428.23L941.12 428.23L941.12 446.12L923.23 446.12z" stroke="#d3b714"></path><path d="M873.83 508.1L907.73 508.1L907.73 538.77L873.83 538.77z" fill="#d3b714"></path><path d="M236.08 102.6L268.55 102.6L268.55 127.3L236.08 127.3z" fill="#d3b714"></path><path d="M9.69 614.66L18.97 614.66L18.97 637.83L9.69 637.83z" fill="#037b0b"></path><path d="M1305.4 452.59L1311.56 452.59L1311.56 487.11L1305.4 487.11z" fill="#d3b714"></path><path d="M1250.26 386.64a13.29 13.29 0 1 0-24.49-10.34z" stroke="#037b0b"></path><path d="M485.44 63.47a19.37 19.37 0 1 0-33.11 20.1z" stroke="#d3b714"></path><path d="M1134.22 567.98L1152.58 567.98L1152.58 586.34L1134.22 586.34z" stroke="#037b0b"></path></g><defs><mask id="SvgjsMask1068"><rect width="1440" height="628" fill="#ffffff"></rect></mask></defs></svg>